<svg viewBox="0 0 2344 512" xmlns="http://www.w3.org/2000/svg"><g fill="none" fill-rule="evenodd"><g fill-rule="nonzero"><path d="M416 512H96a96 96 0 01-96-96V96A96 96 0 0196 0h320a96 96 0 0196 96v320a96 96 0 01-96 96z" fill="#FFE6E2"/><path d="M336.23 139c-31.16 0-59.5 12.25-80.52 32.15A116.74 116.74 0 00175.2 139C110.57 139 58 191.57 58 256.2c0 64.61 52.57 117.19 117.2 117.19 31.16 0 59.5-12.25 80.51-32.15a116.74 116.74 0 0080.52 32.15c64.62 0 117.2-52.58 117.2-117.2S400.84 139 336.22 139zM175.19 362.86c-58.82 0-106.67-47.85-106.67-106.66 0-58.82 47.86-106.67 106.67-106.67 28.33 0 54.05 11.17 73.16 29.24a116.7 116.7 0 00-29.32 77.43c0 29.66 11.1 56.76 29.32 77.43a106.21 106.21 0 01-73.16 29.23zm161.04 0a106.18 106.18 0 01-73.16-29.24 116.72 116.72 0 0029.33-77.43 116.7 116.7 0 00-29.33-77.43 106.17 106.17 0 0173.16-29.25c58.82 0 106.67 47.86 106.67 106.68 0 58.8-47.85 106.67-106.67 106.67z" fill="#FC573B"/></g><text font-family="Inconsolata-Bold, Inconsolata" font-size="400" font-weight="bold" letter-spacing=".18" fill="#FC573B"><tspan x="562.21" y="350">crosspath</tspan></text></g></svg>